<svg width="876" height="876" viewBox="0 0 876 876" fill="none" xmlns="http://www.w3.org/2000/svg">
<circle cx="381.5" cy="381.5" r="381.5" fill="#BCDEDC"/>
<circle cx="409" cy="411" r="301" fill="#F5F6FA"/>
<g clip-path="url(#clip0_452_100)">
<path d="M76 408.924C76 592.544 225.386 741.766 408.842 741.766C493.363 741.766 570.676 709.988 629.481 657.9L841.602 870.021C845.533 873.952 850.611 875.918 855.853 875.918C861.094 875.918 866.172 873.952 870.103 870.021C877.966 862.159 877.966 849.546 870.103 841.684L657.818 629.563C709.907 570.758 741.684 493.608 741.684 408.924C741.684 225.304 592.298 76.0818 408.842 76.0818C225.386 76.0818 76 225.304 76 408.924ZM701.553 408.924C701.553 570.267 570.185 701.635 408.842 701.635C247.499 701.635 116.131 570.267 116.131 408.924C116.131 247.581 247.499 116.213 408.842 116.213C570.185 116.213 701.553 247.417 701.553 408.924Z" fill="#006D77"/>
</g>
<path d="M269.722 423.615C274.151 422.916 541.538 422.683 545.036 423.615C548.533 424.547 551.572 426.258 554.36 430.609C554.36 430.609 594.69 568.382 593.991 572.345C593.292 576.308 591.427 581.204 585.132 583.302C578.838 585.4 234.987 583.768 230.791 583.535C226.595 583.302 221.233 579.339 221 569.781C221 569.781 258.066 435.504 261.097 431.075C264.127 426.646 265.293 424.314 269.722 423.615Z" fill="#1E1E1E" stroke="#1E1E1E"/>
<path d="M563.865 460.163L575.862 474.441L426.432 600.004L414.434 585.726L563.865 460.163Z" fill="#F5F6FA"/>
<path d="M289.25 480.928L307.886 480.217L311.875 584.798L293.239 585.508L289.25 480.928Z" fill="#F5F6FA"/>
<path d="M510.171 509.554L507.104 527.95L243.381 483.979L246.448 465.584L510.171 509.554Z" fill="#F5F6FA"/>
<path fill-rule="evenodd" clip-rule="evenodd" d="M405.662 175.848C340.511 175.848 287.688 228.672 287.688 293.822C287.688 358.973 405.662 490.446 405.662 490.446C405.662 490.446 523.636 358.973 523.636 293.822C523.636 228.672 470.813 175.848 405.662 175.848ZM405.662 372.472C390.106 372.472 374.9 367.859 361.966 359.217C349.033 350.575 338.952 338.292 332.999 323.92C327.046 309.549 325.489 293.735 328.524 278.479C331.558 263.222 339.049 249.208 350.048 238.209C361.048 227.21 375.062 219.719 390.318 216.684C405.575 213.649 421.388 215.207 435.76 221.16C450.131 227.113 462.414 237.193 471.057 250.127C479.699 263.061 484.311 278.267 484.311 293.822C484.31 314.681 476.024 334.686 461.274 349.435C446.525 364.184 426.521 372.471 405.662 372.472Z" fill="#006D77"/>
<defs>
<clipPath id="clip0_452_100">
<rect width="800" height="800" fill="white" transform="translate(76 76)"/>
</clipPath>
</defs>
</svg>
